<svg id="Layer_1" data-name="Layer 1" xmlns="http://www.w3.org/2000/svg" viewBox="0 0 68.36 96.77">
  <path  d="M65.24,77.49h-2.5v-12.84c0-1.72-1.39-3.11-3.11-3.11h-6.42c-1.72,0-3.11,1.39-3.11,3.11v12.84h-2.5c-2.49,0-3.98,2.79-2.58,4.86l8.82,13.05c1.23,1.83,3.92,1.83,5.16,0l8.82-13.05c1.4-2.07-.08-4.86-2.58-4.86Z"/>
  <path  d="M47.92,72.76v-8.1c0-2.92,2.38-5.3,5.3-5.3h3.21c1.66,0,3-1.34,3-3V17.98c0-.8-.32-1.56-.88-2.12L43.57.88c-.56-.56-1.33-.88-2.12-.88H9.02C4.05,0,0,4.04,0,9.02v64.12c0,4.97,4.04,9.02,9.02,9.02h30.44c1.45,0,2.7-1.04,2.95-2.47.1-.57.28-1.1.52-1.56.63-1.2,1.69-2.09,2.96-2.53,1.21-.42,2.03-1.56,2.03-2.84ZM41.44,3l14.98,14.98h-8.96c-3.32,0-6.02-2.69-6.02-6.02V3ZM23.45,45.63c-.32.63-.75,1.17-1.31,1.63-.56.45-1.21.81-1.96,1.07-.75.26-1.56.39-2.44.39-1.34,0-2.56-.23-3.65-.7-1.1-.47-2.03-1.11-2.8-1.92l2.73-2.55c.45.45.99.83,1.62,1.12.63.29,1.33.44,2.1.44.62,0,1.12-.12,1.52-.37s.6-.6.6-1.05c0-.24-.07-.45-.21-.63-.14-.18-.33-.34-.57-.49-.24-.15-.52-.28-.83-.4-.32-.12-.65-.24-.99-.37l-1.13-.4c-.5-.17-.98-.39-1.44-.65-.47-.26-.88-.57-1.25-.94-.37-.36-.66-.78-.88-1.26-.22-.47-.33-1.02-.33-1.63,0-.68.15-1.32.45-1.93.3-.6.71-1.12,1.24-1.56.53-.44,1.15-.79,1.86-1.04.71-.25,1.48-.38,2.31-.38,1.07,0,2.05.16,2.95.49.9.33,1.69.77,2.37,1.34l-2.39,2.7c-.38-.3-.8-.54-1.27-.73s-1-.29-1.57-.29-1.01.1-1.36.31c-.35.21-.53.5-.53.88,0,.2.06.38.18.53s.29.29.5.41c.21.12.45.23.73.34.28.11.58.21.89.31l.99.34c.51.18,1.03.41,1.54.67.52.26.99.59,1.41.97s.76.84,1.01,1.38c.26.54.38,1.18.38,1.92s-.16,1.42-.47,2.05ZM36.62,35.85h-3.92v12.53h-3.95v-12.53h-3.92v-3.51h11.79v3.51ZM38.8,48.38v-16.04h3.95v12.53h5.57v3.51h-9.52Z"/>
</svg>